# xmcd
#
# Track frame offsets:
#	150
#	27213
#	62326
#	83377
#	113327
#	142966
#	193622
#	229334
#	248794
#	278273
#
# Disc length: 4112 seconds
#
# Revision: 1
# Processed by: cddbd v1.5.1PL0 Copyright (c) Steve Scherf et al.
# Submitted via: audiograbber 1.82.01
#
DISCID=6d100e0a
DTITLE=George Thorogood - 2004-04-30 - Ancienne Belgique,Brussels , Belgium - D
DTITLE=isc 1
DYEAR=1900
DGENRE=
TTITLE0=George Thorogood - Be Bop Grand Ma
TTITLE1=George Thorogood - Who Do You Love
TTITLE2=George Thorogood - The Fixer
TTITLE3=George Thorogood - Night Time
TTITLE4=George Thorogood - I Drink Alone
TTITLE5=George Thorogood - Bourbon Scotch And Beer
TTITLE6=George Thorogood - The Sky Is Crying
TTITLE7=George Thorogood - Sweet Little Lady
TTITLE8=George Thorogood - Get A Haircut
TTITLE9=George Thorogood - Bad To The Bone
EXTD=
EXTT0=
EXTT1=
EXTT2=
EXTT3=
EXTT4=
EXTT5=
EXTT6=
EXTT7=
EXTT8=
EXTT9=
PLAYORDER=
